<?xml version="1.0" standalone="no"?>
<!DOCTYPE svg PUBLIC "-//W3C//DTD SVG 20010904//EN"
 "http://www.w3.org/TR/2001/REC-SVG-20010904/DTD/svg10.dtd">
<svg version="1.0" xmlns="http://www.w3.org/2000/svg"
 width="660.000000pt" height="660.000000pt" viewBox="0 0 660.000000 660.000000"
 preserveAspectRatio="xMidYMid meet">
<metadata>
Created by potrace 1.14, written by Peter Selinger 2001-2017
</metadata>
<g transform="translate(0.000000,660.000000) scale(0.100000,-0.100000)"
fill="#000000" stroke="none">
<path d="M1800 6148 c-316 -48 -433 -443 -196 -661 17 -16 60 -43 96 -60 57
-28 75 -32 150 -32 47 0 94 2 104 5 20 5 37 -20 128 -180 14 -25 65 -114 114
-199 75 -131 85 -154 72 -162 -91 -51 -282 -218 -377 -330 -86 -101 -90 -107
-146 -193 -118 -182 -223 -436 -250 -606 -3 -19 -8 -42 -10 -50 -4 -17 -11
-68 -20 -150 -11 -103 -6 -343 10 -415 1 -5 5 -32 9 -60 25 -156 89 -343 178
-514 83 -159 187 -301 310 -425 32 -32 57 -61 54 -63 -12 -13 -462 -93 -601
-108 -122 -13 -142 -15 -215 -20 -91 -7 -316 -7 -385 0 -124 12 -175 21 -246
45 -75 24 -109 43 -141 77 -46 49 -28 136 60 273 19 30 37 57 41 60 3 3 24 27
46 55 121 150 390 384 632 548 90 61 91 63 87 97 -3 19 -7 42 -9 50 -3 8 -7
31 -10 50 -3 20 -9 48 -13 63 l-7 28 -100 -67 c-107 -72 -317 -230 -405 -304
-108 -92 -174 -155 -315 -304 -27 -28 -104 -131 -136 -181 -105 -166 -133
-328 -76 -441 59 -116 192 -192 418 -239 21 -4 114 -16 164 -21 95 -9 409 -3
520 10 28 3 70 8 95 10 67 7 143 17 160 21 8 2 35 7 60 10 40 5 96 14 187 31
52 9 217 44 318 67 l100 23 40 -28 c69 -47 256 -135 366 -172 213 -72 340 -91
599 -90 170 1 211 4 321 27 138 29 289 79 405 133 42 19 77 34 78 32 4 -4 237
-411 266 -463 85 -152 102 -176 119 -163 9 7 -3 -8 -27 -32 -185 -193 -126
-505 118 -619 47 -22 69 -26 155 -26 90 0 106 3 159 29 103 50 189 155 211
256 39 171 -42 352 -193 429 -50 25 -147 49 -182 45 -67 -9 -100 -14 -113 -20
-10 -3 -20 5 -29 23 -8 15 -74 132 -147 258 -159 273 -166 285 -190 328 l-19
34 82 59 c180 130 311 265 437 453 106 157 201 369 245 543 l16 68 127 76
c640 390 1083 794 1213 1105 40 96 48 202 23 280 -24 72 -106 154 -197 198
-155 73 -336 100 -648 96 -124 -2 -236 -6 -250 -8 -14 -3 -54 -8 -90 -12 -117
-12 -167 -19 -260 -35 -30 -5 -73 -12 -95 -16 -22 -3 -42 -7 -43 -9 -2 -2 27
-44 65 -94 l68 -91 50 6 c28 4 57 8 65 9 9 2 43 6 75 10 33 4 68 9 78 11 94
17 494 25 612 12 163 -17 295 -61 350 -116 24 -24 27 -33 23 -77 -19 -213
-371 -576 -908 -934 -80 -53 -162 -107 -182 -119 l-37 -23 -1 128 c0 70 -2
139 -4 153 -2 14 -7 50 -11 80 -9 76 -59 272 -92 361 -107 292 -309 573 -553
772 -50 40 -215 149 -280 184 -132 71 -399 164 -509 178 -20 3 -46 7 -58 9
-157 32 -438 25 -613 -14 -25 -6 -54 -12 -65 -14 -78 -15 -246 -73 -348 -122
-34 -16 -62 -23 -67 -18 -5 5 -33 52 -63 104 -29 52 -95 166 -145 254 -51 87
-92 161 -92 165 0 3 15 20 32 36 17 17 45 59 62 95 28 60 31 73 31 165 -1 90
-3 106 -29 158 -57 113 -175 201 -284 213 -26 3 -51 6 -57 8 -5 1 -35 -1 -65
-6z m1594 -1192 c43 -4 88 -10 100 -12 12 -3 46 -9 76 -15 139 -27 333 -103
478 -188 385 -224 678 -640 755 -1071 3 -14 8 -41 11 -60 17 -90 22 -291 10
-400 -3 -36 -7 -65 -8 -66 0 -1 -45 -26 -99 -57 -91 -52 -98 -54 -107 -36 -9
16 -6 21 24 35 56 27 65 75 27 159 -82 184 -358 182 -450 -3 -21 -41 -29 -117
-17 -169 13 -62 62 -121 128 -154 l41 -21 -104 -50 c-149 -72 -290 -138 -294
-138 -2 0 -41 -17 -87 -39 -107 -49 -417 -176 -578 -236 -123 -46 -406 -145
-425 -149 -5 -2 -69 -22 -141 -45 -72 -23 -209 -64 -305 -90 l-174 -48 -55 47
c-111 96 -198 193 -279 310 -362 526 -378 1197 -43 1749 24 40 50 81 58 90 7
9 35 44 62 78 69 87 206 215 310 290 48 35 146 92 217 127 189 94 361 144 555
162 41 3 76 7 77 8 5 4 162 -2 237 -8z m1332 -2160 c-86 -229 -234 -445 -422
-616 -164 -150 -403 -283 -616 -344 -181 -52 -211 -56 -423 -61 -214 -5 -365
18 -560 85 -74 25 -195 81 -195 89 0 4 39 17 88 30 332 90 1043 351 1370 502
35 16 65 29 67 29 13 0 480 229 600 294 55 30 103 55 107 55 4 1 -3 -28 -16
-63z m66 -1724 c47 -19 106 -87 121 -140 27 -88 7 -169 -54 -231 -109 -108
-282 -88 -363 42 -38 62 -42 159 -8 223 57 110 184 154 304 106z"/>
<path d="M3574 3836 c-3 -7 -4 -19 -2 -27 2 -10 -11 -15 -49 -17 l-53 -3 0
-53 c0 -60 5 -69 30 -56 12 7 16 19 14 40 l-4 30 86 0 c84 0 85 0 78 -22 -21
-70 -46 -98 -106 -118 -38 -14 -42 -34 -8 -45 48 -15 133 63 156 142 21 73 16
83 -45 83 -46 0 -50 2 -53 27 -3 28 -35 42 -44 19z"/>
<path d="M2962 3817 c-41 -44 -116 -88 -174 -102 -29 -7 -34 -20 -19 -43 6
-10 20 -8 64 12 l57 25 0 -75 c0 -71 1 -74 23 -74 23 0 24 2 23 88 l-1 87 39
30 c47 36 54 50 28 64 -15 8 -23 6 -40 -12z"/>
<path d="M4110 3790 c-19 -58 -30 -64 -73 -35 -20 14 -40 25 -45 25 -14 0 -25
-34 -12 -38 6 -2 24 -15 41 -29 29 -25 29 -26 12 -46 -10 -11 -37 -32 -61 -47
-39 -26 -41 -29 -27 -44 9 -9 19 -16 23 -16 10 0 93 67 106 86 11 14 17 12 50
-20 32 -32 39 -35 51 -22 21 20 20 24 -21 60 l-35 31 26 59 c21 47 23 61 13
67 -24 16 -35 9 -48 -31z"/>
<path d="M2361 3758 c-80 -89 -80 -88 -55 -109 15 -12 20 -10 38 15 12 16 31
41 43 55 l22 26 38 -41 c21 -22 52 -58 70 -79 31 -39 32 -39 52 -21 21 19 20
19 -61 102 -45 46 -90 84 -100 84 -9 0 -31 -15 -47 -32z"/>
<path d="M1990 3245 l0 -285 50 0 50 0 0 88 c0 68 4 94 19 118 23 37 52 47 80
27 19 -13 21 -24 21 -124 l0 -109 50 0 50 0 1 43 c3 155 -2 223 -20 247 -35
48 -124 51 -178 6 l-28 -24 1 149 0 149 -48 0 -48 0 0 -285z"/>
<path d="M2892 3424 c-25 -17 -29 -56 -8 -73 8 -7 30 -11 48 -9 26 2 35 9 43
32 8 24 6 31 -14 47 -28 23 -40 24 -69 3z"/>
<path d="M2545 3282 c-115 -38 -161 -174 -91 -267 47 -61 149 -81 229 -44 l26
12 -22 37 c-20 36 -23 37 -47 26 -25 -13 -83 -5 -94 12 -2 4 45 23 105 41 60
19 112 38 115 42 7 13 -21 72 -47 100 -43 44 -113 60 -174 41z m96 -91 c27
-22 32 -18 -63 -50 -55 -19 -58 -19 -58 -2 0 10 9 30 21 45 25 32 66 34 100 7z"/>
<path d="M3715 3280 c-11 -4 -30 -18 -42 -29 -22 -21 -23 -21 -23 -2 0 10 -6
21 -12 23 -11 4 -62 3 -78 -1 -3 0 -6 -71 -6 -156 l-1 -155 51 0 52 0 -1 78
c-2 77 14 139 38 154 21 13 57 9 64 -8 3 -9 7 -62 7 -118 l1 -101 48 -3 c26
-2 48 1 48 5 1 4 2 40 3 78 1 39 5 84 9 101 9 34 43 58 73 52 17 -3 19 -15 22
-121 l3 -117 49 0 50 0 0 136 0 136 -29 29 c-42 41 -108 38 -155 -8 -19 -18
-20 -17 -47 9 -29 29 -80 37 -124 18z"/>
<path d="M2874 3271 c-2 -2 -4 -73 -4 -158 l0 -153 50 0 c48 0 50 1 51 28 0
37 0 264 0 277 -1 10 -87 15 -97 6z"/>
<path d="M3112 3271 c-5 -3 -8 -65 -7 -138 2 -144 6 -156 61 -179 46 -19 112
-3 141 35 11 14 13 13 19 -6 5 -19 13 -23 50 -23 42 0 43 0 46 38 2 20 1 91
-2 157 l-5 120 -45 0 -45 0 -6 -95 c-3 -52 -9 -102 -13 -111 -10 -22 -51 -43
-71 -36 -24 10 -30 39 -30 142 1 52 -1 95 -4 96 -24 5 -82 4 -89 0z"/>
</g>
</svg>
